<svg width="80" height="80" viewBox="0 0 95 95" fill="none" xmlns="http://www.w3.org/2000/svg">
<path d="M47.5 0C21.3074 0 0 21.3074 0 47.5C0 73.6926 21.3074 95 47.5 95C73.6926 95 95 73.6926 95 47.5C95 21.3074 73.6926 0 47.5 0ZM68.2812 51.4581H51.4581V68.2812C51.4581 70.4665 49.6852 72.2393 47.5 72.2393C45.3148 72.2393 43.5419 70.4665 43.5419 68.2812V51.4581H26.7188C24.5335 51.4581 22.7607 49.6852 22.7607 47.5C22.7607 45.3148 24.5335 43.5419 26.7188 43.5419H43.5419V26.7188C43.5419 24.5335 45.3148 22.7607 47.5 22.7607C49.6852 22.7607 51.4581 24.5335 51.4581 26.7188V43.5419H68.2812C70.4665 43.5419 72.2393 45.3148 72.2393 47.5C72.2393 49.6852 70.4665 51.4581 68.2812 51.4581Z" fill="url(#paint0_linear)"/>
<defs>
<linearGradient id="paint0_linear" x1="5.5" y1="-1.13766e-06" x2="65" y2="47" gradientUnits="userSpaceOnUse">
<stop stop-color="#DBDBDB"/>
<stop offset="1" stop-color="white"/>
</linearGradient>
</defs>
</svg>
